PathFileType	4	(X/Y/Z)	1_coords_data.trc
DataRate	CameraRate	NumFrames	NumMarkers	Units	OrigDataRate	OrigDataStartFrame	OrigNumFrames
30.0	30.0	7	21	m	30.0	38	65
Frame#	Time	THUMB_TIP	THUMB_IP	THUMB_MCP	THUMB_CMC	INDEX_TIP	INDEX_DIP	INDEX_PIP	INDEX_MCP	MIDDLE_TIP	MIDDLE_DIP	MIDDLE_PIP	MIDDLE_MCP	RING_TIP	RING_DIP	RING_PIP	RING_MCP	PINKY_TIP	PINKY_DIP	PINKY_PIP	PINKY_MCP	WRIST
X1	Y1	Z1	X2	Y2	Z2	X3	Y3	Z3	X4	Y4	Z4	X5	Y5	Z5	X6	Y6	Z6	X7	Y7	Z7	X8	Y8	Z8	X9	Y9	Z9	X10	Y10	Z10	X11	Y11	Z11	X12	Y12	Z12	X13	Y13	Z13	X14	Y14	Z14	X15	Y15	Z15	X16	Y16	Z16	X17	Y17	Z17	X18	Y18	Z18	X19	Y19	Z19	X20	Y20	Z20	X21	Y21	Z21
36	1.233333333333328	0.49396574227579626	-0.01724890323138939	-0.16893222594091728	0.4909591827305818	-0.02176873939544066	-0.14660440292228832	0.4769507922501151	-0.03145895525562681	-0.12055282499062048	0.47584856545414617	-0.030884728896500846	-0.07596195865928834	0.5585651294891836	-0.002510370064783496	-0.13784275592698048	0.5494336877396467	0.012728510466483156	-0.14136316665992016	0.5290433145532126	0.027433308420157343	-0.1414700846638724	0.4942549777214537	0.013132360093006001	-0.12149783913603462	0.5726235689300727	0.0004993171299678689	-0.11992481550982503	0.5646016481946623	0.016666544311068843	-0.11841831194545427	0.5426782304787964	0.03581732517925207	-0.1169967290971875	0.5012850413186123	0.028243178452264983	-0.10198393077351431	0.5734424959610702	0.007471288395752951	-0.1040378242821125	0.565266729564393	0.02272364441770014	-0.098985846490521	0.5476806866561992	0.03971798642184554	-0.09428441972013368	0.5094716519482868	0.034147085042677605	-0.08229460910807085	0.5749111222281154	0.006319293831840822	-0.07389981471815632	0.5659174631202084	0.020230432687500577	-0.06958770252233903	0.5495773006718303	0.03309455034219877	-0.06670229317067078	0.5142694012561739	0.028727345244037195	-0.06077243571163349	0.46228308100186083	-0.023011742144276925	-0.051989820119430985
37	1.2666666666666608	0.4941792867707212	-0.02030029960483848	-0.16917776462888612	0.4911938231311719	-0.024209924069637512	-0.14673223404034413	0.4767964477202581	-0.03281054348796408	-0.1205107747579488	0.4756106616843451	-0.031336638623247426	-0.07594271987637702	0.5634668251466755	0.005573597278345721	-0.14675764318989537	0.5503114740033916	0.017996681946195636	-0.14753462686561064	0.5275858942477603	0.02818955064637707	-0.14411947160833372	0.4954800449526027	0.011158047963896411	-0.1219208578810469	0.5819054853359005	0.01551381476301883	-0.12810808869787782	0.5682778673318667	0.02690909019044474	-0.12458165629823659	0.5421087759843807	0.03877440942407484	-0.11970288518954697	0.5026619496167839	0.026307466355265374	-0.10283068494643288	0.5830093396693599	0.021702071327025285	-0.11011129066245728	0.5694964633430553	0.031828170438195746	-0.10379747326085698	0.5479859659713958	0.04237220564459543	-0.09699293041140411	0.5113460359793747	0.03186874937798401	-0.08350538909969085	0.5842185952498179	0.02076133818400705	-0.07547674610048016	0.5699823234233221	0.029316690313588634	-0.07133736034641158	0.5504173043210304	0.03621601872851998	-0.06810915435083442	0.5162193062184659	0.026429822696793948	-0.062141680512967534	0.46228308100186094	-0.023011742144276925	-0.051989820119430985
38	1.299999999999994	0.4938401495957466	-0.023218278326890718	-0.16946088214852734	0.4910344389804232	-0.026533286571689185	-0.1468967799443628	0.4764533632210861	-0.03411239770080776	-0.12046253502999194	0.47534934707763593	-0.03177821742397302	-0.07592914586197286	0.5648188420044884	0.013154768492838254	-0.15439477312733646	0.5494494150518274	0.022606037417203018	-0.15282817462543746	0.525871094316221	0.028521822274783948	-0.1464191096540326	0.496499428471818	0.009282109250301818	-0.12231984032360865	0.5849036485236521	0.02952948437196723	-0.134429087270586	0.5687429584722037	0.03609229520951884	-0.12955449898319882	0.5410343246266822	0.041093908270653734	-0.12202953870413369	0.5038922870361974	0.02440285970001166	-0.10364405904654839	0.58655907570931	0.03436590714676113	-0.11439049754035968	0.5707981250126313	0.039805977919083024	-0.10753498420225027	0.5477268144794971	0.04432949580740597	-0.0993232611676057	0.513052953419661	0.029610419097351515	-0.08463336756667339	0.5873908425751925	0.03277500809339351	-0.07640859449290038	0.5711893026166412	0.03681801027045706	-0.07264505408954025	0.5505315514010036	0.038497454357643957	-0.0692911308240447	0.517952494593424	0.024177616905132315	-0.06342335749320216	0.46228308100186083	-0.023011742144276925	-0.051989820119430985
39	1.3333333333333275	0.4932108143266525	-0.025845101411293148	-0.1697386890320372	0.49065538554217664	-0.02862119201804869	-0.1470723460391643	0.4760366305018176	-0.03527902570910546	-0.12041178993820867	0.4750970380575322	-0.032159913550294905	-0.0759227091949588	0.5640315257821247	0.01933347099615179	-0.16051080053518146	0.5476074122309804	0.026142636036051603	-0.1570635167466708	0.5241643427446074	0.028468003068562564	-0.14828712829690405	0.4972706426060976	0.007612013162753173	-0.12268649018164024	0.5843237651043386	0.040374690608491304	-0.13897050024367696	0.5673747723947122	0.04317570784905056	-0.13323587309388607	0.5397697381291822	0.04268205259732005	-0.12390163838013712	0.5049429430004629	0.022627750133318636	-0.10438069540228456	0.586795910441712	0.0438962137542499	-0.11749257183390771	0.5703572547953125	0.04581242822583287	-0.1103442347798792	0.5471824556120073	0.04552698650438369	-0.10123230936111427	0.5145287371396623	0.02748607558431937	-0.08564446034006123	0.587626906054729	0.04129082231291481	-0.07717355773937973	0.5708936191132794	0.04211247989411615	-0.07366328895275309	0.5503010848515482	0.03982707966632704	-0.07026674696445867	0.5194180255039188	0.02208615448337592	-0.06457643326627494	0.4622830810018609	-0.023011742144276925	-0.051989820119430985
40	1.3666666666666607	0.4925920856016995	-0.028200002497414833	-0.1699694788050522	0.4902545023274481	-0.030461750797870613	-0.14722260651321117	0.475642714229957	-0.03628825909719058	-0.12036432195086488	0.4748713884577314	-0.032455030630204273	-0.07592783451010299	0.5622022060365333	0.024120657472563534	-0.16545147420011014	0.545408367426981	0.028664925110465367	-0.16041991217709684	0.5226430699618483	0.02815995150349282	-0.14976645893505902	0.49779925690434	0.006255407177552463	-0.12299684958720902	0.5822316800414407	0.04841613628584296	-0.14234903501674595	0.5652833203523112	0.04832524379716441	-0.1359658663362711	0.5385459325309101	0.04362458709752104	-0.12536277862183176	0.5057695766250889	0.021090993006575798	-0.10501344074858743	0.5855942985185745	0.05076294873647502	-0.11990601566021941	0.5691745042926292	0.050022798855678174	-0.11250044102137013	0.5466088957804758	0.04604411605313019	-0.10274629448602712	0.5157296348665547	0.025616571919562126	-0.08650106379880351	0.5868070857703205	0.047063985221874605	-0.07793327885489387	0.570106719826497	0.045495219264026554	-0.07452201065789199	0.5500515050000221	0.04032188904476541	-0.07108151189951106	0.5205710163212293	0.020288196348961285	-0.0655646835326269	0.46228308100186083	-0.023011742144276925	-0.051989820119430985
41	1.3999999999999937	0.4918851923617657	-0.030206236992749158	-0.17015027503415975	0.4897304142601985	-0.032013539741304387	-0.14734478034300974	0.4752106046178839	-0.03715547212529868	-0.12029749472486728	0.4746984351158326	-0.03271618599090087	-0.07591370916056328	0.559917415265587	0.027657250489601992	-0.16940103680997587	0.5431655795062917	0.03033668092546571	-0.16306095390571024	0.5212796912649293	0.027750662286745387	-0.15096425036768846	0.4980118592603854	0.005229276057234111	-0.12330505207653197	0.5795844877987206	0.05428053420697765	-0.14498404176370588	0.5630128494271909	0.05194419223822777	-0.13806144774929924	0.5374097485562045	0.04411758303480562	-0.12654472233940073	0.506274564741037	0.01987532148795479	-0.1055909397479492	0.5838490512552019	0.055582600736147514	-0.12190996523727127	0.5677793106320337	0.05280271484689636	-0.11422649787241301	0.5460948152212206	0.04610850560117852	-0.10397222069881507	0.5165555199626031	0.02414221067631861	-0.08724999725519689	0.5857964318910327	0.05081423088285786	-0.07874564302957865	0.5693693070352184	0.047415602251129396	-0.07533992836227554	0.5499577332526184	0.0402203349119703	-0.0718426508210005	0.5213731716940619	0.018907864353823856	-0.06640345141178261	0.46228308100186094	-0.023011742144276925	-0.051989820119430985
42	1.4333333333333271	0.491420002409222	-0.031776388867259864	-0.1702306211041148	0.4893043006057193	-0.03318404375600659	-0.14739332017793605	0.47483799673687577	-0.037802035797955935	-0.1202231121942865	0.47460477124449996	-0.03290377233889674	-0.07588528837584285	0.5576529262579193	0.03009179750461033	-0.17234432710497455	0.5411570430932366	0.031395901426865325	-0.16498327068778124	0.5200695559294232	0.02748185951400217	-0.1518680888735497	0.49792776532355676	0.004586845880607315	-0.12359804194234292	0.5770299694606383	0.058338873533432145	-0.14703176167694892	0.5610120096580662	0.0542618064028213	-0.13962889146495167	0.53645195924275	0.04432804254073608	-0.12748254184337993	0.5064471473451926	0.019067823235843884	-0.10608673607073038	0.5821320964697532	0.05869315722132229	-0.12359941149554399	0.5665534110361581	0.05437597674852135	-0.11562028166038263	0.54569144822052	0.045951686256439195	-0.10494368031988366	0.5169714277799207	0.0231749814735559	-0.08788194010603256	0.5851116776833303	0.052807267266498426	-0.07963276528496388	0.5690238995203993	0.04810026651047594	-0.07616469122821012	0.550121839443791	0.039702158582477054	-0.07255970480799034	0.5218131294271284	0.018027300556963777	-0.06710984996897285	0.4622830810018609	-0.023011742144276925	-0.051989820119430985
